<?xml version="1.0" standalone="no"?><svg xmlns="http://www.w3.org/2000/svg" viewBox="0 0 1440 320"><path fill="#0099ff" fill-opacity="1" d="M0,0L20,16C40,32,80,64,120,74.7C160,85,200,75,240,64C280,53,320,43,360,48C400,53,440,75,480,101.3C520,128,560,160,600,149.3C640,139,680,85,720,69.3C760,53,800,75,840,106.7C880,139,920,181,960,192C1000,203,1040,181,1080,160C1120,139,1160,117,1200,138.7C1240,160,1280,224,1320,218.7C1360,213,1400,139,1420,101.3L1440,64L1440,320L1420,320C1400,320,1360,320,1320,320C1280,320,1240,320,1200,320C1160,320,1120,320,1080,320C1040,320,1000,320,960,320C920,320,880,320,840,320C800,320,760,320,720,320C680,320,640,320,600,320C560,320,520,320,480,320C440,320,400,320,360,320C320,320,280,320,240,320C200,320,160,320,120,320C80,320,40,320,20,320L0,320Z"></path></svg>